<?xml version="1.0" encoding="iso-8859-1"?>
<!-- Uploaded to: SVG Repo, www.svgrepo.com, Generator: SVG Repo Mixer Tools -->
<svg height="800px" width="800px" version="1.1" id="Layer_1" xmlns="http://www.w3.org/2000/svg" xmlns:xlink="http://www.w3.org/1999/xlink" 
	 viewBox="0 0 503.467 503.467" xml:space="preserve">
<g transform="translate(1 1)">
	<path style="fill:#AAB1BA;" d="M498.2,54.467v375.467c0,18.773-15.36,34.133-34.133,34.133h-85.333V37.4
		c0-5.973-1.707-11.093-4.267-16.213l4.267-0.853h85.333C482.84,20.333,498.2,35.693,498.2,54.467z M122.733,37.4v426.667H37.4
		c-18.773,0-34.133-15.36-34.133-34.133V54.467c0-18.773,15.36-34.133,34.133-34.133h85.333L127,21.187
		C124.44,26.307,122.733,31.427,122.733,37.4z"/>
	<path style="fill:#7EE1E6;" d="M378.733,37.4v426.667c0,18.773-15.36,34.133-34.133,34.133H156.867
		c-18.773,0-34.133-15.36-34.133-34.133V37.4c0-5.973,1.707-11.093,4.267-16.213c5.973-11.093,17.067-17.92,29.867-17.92H344.6
		c12.8,0,23.893,7.68,29.867,17.92C377.027,26.307,378.733,31.427,378.733,37.4"/>
	<path style="fill:#E4F2DE;" d="M250.733,344.6c5.12,0,8.533,4.267,8.533,8.533s-3.413,8.533-8.533,8.533
		c-5.12,0-8.533-4.267-8.533-8.533S245.613,344.6,250.733,344.6"/>
</g>
<path style="fill:#51565F;" d="M345.6,503.467H157.867c-21.333,0-38.4-17.067-38.4-38.4V38.4c0-21.333,17.067-38.4,38.4-38.4H345.6
	C366.933,0,384,17.067,384,38.4v426.667C384,486.4,366.933,503.467,345.6,503.467z M157.867,8.533
	C141.653,8.533,128,22.187,128,38.4v426.667c0,16.213,13.653,29.867,29.867,29.867H345.6c16.213,0,29.867-13.653,29.867-29.867V38.4
	c0-16.213-13.653-29.867-29.867-29.867H157.867z M465.067,469.333h-51.2c-2.56,0-4.267-1.707-4.267-4.267
	c0-2.56,1.707-4.267,4.267-4.267h51.2c16.213,0,29.867-13.653,29.867-29.867V55.467c0-16.213-13.653-29.867-29.867-29.867H409.6
	c-2.56,0-4.267-1.707-4.267-4.267s1.707-4.267,4.267-4.267h55.467c21.333,0,38.4,17.067,38.4,38.4v375.467
	C503.467,452.267,486.4,469.333,465.067,469.333z M89.6,469.333H38.4c-21.333,0-38.4-17.067-38.4-38.4V55.467
	c0-21.333,17.067-38.4,38.4-38.4h55.467c2.56,0,4.267,1.707,4.267,4.267S96.427,25.6,93.867,25.6H38.4
	c-16.213,0-29.867,13.653-29.867,29.867v375.467c0,16.213,13.653,29.867,29.867,29.867h51.2c2.56,0,4.267,1.707,4.267,4.267
	C93.867,467.627,92.16,469.333,89.6,469.333z M294.4,452.267h-85.333c-2.56,0-4.267-1.707-4.267-4.267
	c0-2.56,1.707-4.267,4.267-4.267H294.4c2.56,0,4.267,1.707,4.267,4.267C298.667,450.56,296.96,452.267,294.4,452.267z
	 M430.933,418.133h-17.067c-2.56,0-4.267-1.707-4.267-4.267c0-2.56,1.707-4.267,4.267-4.267h17.067c2.56,0,4.267,1.707,4.267,4.267
	C435.2,416.427,433.493,418.133,430.933,418.133z M294.4,418.133h-85.333c-2.56,0-4.267-1.707-4.267-4.267
	c0-2.56,1.707-4.267,4.267-4.267H294.4c2.56,0,4.267,1.707,4.267,4.267C298.667,416.427,296.96,418.133,294.4,418.133z
	 M89.6,418.133H72.533c-2.56,0-4.267-1.707-4.267-4.267c0-2.56,1.707-4.267,4.267-4.267H89.6c2.56,0,4.267,1.707,4.267,4.267
	C93.867,416.427,92.16,418.133,89.6,418.133z M430.933,384h-17.067c-2.56,0-4.267-1.707-4.267-4.267c0-2.56,1.707-4.267,4.267-4.267
	h17.067c2.56,0,4.267,1.707,4.267,4.267C435.2,382.293,433.493,384,430.933,384z M89.6,384H72.533c-2.56,0-4.267-1.707-4.267-4.267
	c0-2.56,1.707-4.267,4.267-4.267H89.6c2.56,0,4.267,1.707,4.267,4.267C93.867,382.293,92.16,384,89.6,384z M251.733,366.933
	c-6.827,0-12.8-5.973-12.8-12.8c0-6.827,5.973-12.8,12.8-12.8c6.827,0,12.8,5.973,12.8,12.8
	C264.533,360.96,258.56,366.933,251.733,366.933z M251.733,349.867c-2.56,0-4.267,1.707-4.267,4.267c0,2.56,1.707,4.267,4.267,4.267
	c2.56,0,4.267-1.707,4.267-4.267C256,351.573,254.293,349.867,251.733,349.867z M465.067,247.467h-51.2
	c-2.56,0-4.267-1.707-4.267-4.267s1.707-4.267,4.267-4.267h51.2c2.56,0,4.267,1.707,4.267,4.267S467.627,247.467,465.067,247.467z
	 M345.6,247.467H157.867c-2.56,0-4.267-1.707-4.267-4.267s1.707-4.267,4.267-4.267H345.6c2.56,0,4.267,1.707,4.267,4.267
	S348.16,247.467,345.6,247.467z M89.6,247.467H38.4c-2.56,0-4.267-1.707-4.267-4.267s1.707-4.267,4.267-4.267h51.2
	c2.56,0,4.267,1.707,4.267,4.267S92.16,247.467,89.6,247.467z M465.067,179.2h-51.2c-2.56,0-4.267-1.707-4.267-4.267
	c0-2.56,1.707-4.267,4.267-4.267h51.2c2.56,0,4.267,1.707,4.267,4.267C469.333,177.493,467.627,179.2,465.067,179.2z M345.6,179.2
	H157.867c-2.56,0-4.267-1.707-4.267-4.267c0-2.56,1.707-4.267,4.267-4.267H345.6c2.56,0,4.267,1.707,4.267,4.267
	C349.867,177.493,348.16,179.2,345.6,179.2z M89.6,179.2H38.4c-2.56,0-4.267-1.707-4.267-4.267c0-2.56,1.707-4.267,4.267-4.267h51.2
	c2.56,0,4.267,1.707,4.267,4.267C93.867,177.493,92.16,179.2,89.6,179.2z M465.067,110.933h-51.2c-2.56,0-4.267-1.707-4.267-4.267
	s1.707-4.267,4.267-4.267h51.2c2.56,0,4.267,1.707,4.267,4.267S467.627,110.933,465.067,110.933z M345.6,110.933H157.867
	c-2.56,0-4.267-1.707-4.267-4.267s1.707-4.267,4.267-4.267H345.6c2.56,0,4.267,1.707,4.267,4.267S348.16,110.933,345.6,110.933z
	 M89.6,110.933H38.4c-2.56,0-4.267-1.707-4.267-4.267S35.84,102.4,38.4,102.4h51.2c2.56,0,4.267,1.707,4.267,4.267
	S92.16,110.933,89.6,110.933z M345.6,42.667H157.867c-2.56,0-4.267-1.707-4.267-4.267s1.707-4.267,4.267-4.267H345.6
	c2.56,0,4.267,1.707,4.267,4.267S348.16,42.667,345.6,42.667z"/>
</svg>