<svg width="347" height="347" viewBox="0 0 347 347" fill="none" xmlns="http://www.w3.org/2000/svg">
<path d="M290.589 100.341C290.589 108.148 286.396 115.233 279.746 118.848L254.588 132.438L233.19 143.86L188.803 167.861C184.031 170.464 178.826 171.765 173.477 171.765C168.127 171.765 162.922 170.464 158.151 167.861L67.2087 118.848C60.5579 115.233 56.365 108.148 56.365 100.341C56.365 92.5334 60.5579 85.4489 67.2087 81.8343L95.6917 66.5084L118.391 54.2189L158.151 32.8205C167.694 27.6155 179.26 27.6155 188.803 32.8205L279.746 81.8343C286.396 85.4489 290.589 92.5334 290.589 100.341Z" fill="#86A8FF"/>
<path d="M143.119 184.924L58.5382 142.706C52.0319 139.38 44.5136 139.814 38.2965 143.573C32.0794 147.332 28.4648 153.983 28.4648 161.212V241.166C28.4648 255.046 36.1278 267.481 48.5619 273.698L133.143 315.916C136.035 317.362 139.216 318.085 142.397 318.085C146.156 318.085 149.916 317.073 153.241 314.904C159.458 311.145 163.071 304.494 163.071 297.265V217.31C163.216 203.575 155.553 191.141 143.119 184.924Z" fill="#86A8FF"/>
<path d="M318.53 161.205V241.159C318.53 254.895 310.867 267.329 298.433 273.546L213.852 315.909C210.96 317.355 207.779 318.078 204.598 318.078C200.839 318.078 197.08 317.065 193.61 314.897C187.538 311.138 183.778 304.487 183.778 297.258V217.448C183.778 203.568 191.441 191.133 203.876 184.916L234.961 169.446L256.648 158.602L288.457 142.699C294.963 139.373 302.481 139.662 308.698 143.566C314.771 147.325 318.53 153.975 318.53 161.205Z" fill="#86A8FF"/>
<path d="M254.627 132.438L233.229 143.86L95.73 66.5083L118.43 54.2188L251.157 129.113C252.603 129.98 253.76 131.137 254.627 132.438Z" fill="white"/>
<path d="M256.635 158.591V191.41C256.635 197.337 251.72 202.253 245.792 202.253C239.864 202.253 234.948 197.337 234.948 191.41V169.434L256.635 158.591Z" fill="white"/>
</svg>
